<svg xmlns="http://www.w3.org/2000/svg" xmlns:xlink="http://www.w3.org/1999/xlink" viewBox="0 0 1108.65 226.11"><defs><style>.cls-1{fill:none;}.cls-2{clip-path:url(#clip-path);}.cls-3,.cls-4{stroke:#000;stroke-miterlimit:10;}.cls-3{stroke-width:0.75px;}.cls-4{stroke-width:2px;}</style><clipPath id="clip-path" transform="translate(-6.75 -0.21)"><path class="cls-1" d="M52.39,218,2.59,251.74A1.73,1.73,0,0,1,0,250.12L.53,1.88A1.81,1.81,0,0,1,2.26,0h30A1.81,1.81,0,0,1,34,1.93L32.48,179.11v4.57c0,2.29,2.79.77,3.15,0,1-2.28,1-3.43,2.09-6.86L72,27.07a1.66,1.66,0,0,1,2.58-1l34.47,22.7a1.9,1.9,0,0,1,.77,1.49l10.66,93.59c0,1,.07,1.8.68,1.8h.55c.93,0,.93,0,1.44-.84L141,68.54a1.64,1.64,0,0,1,2.3-.59l19.1,12c.84.53.86,1.57.6,2.62l-15.07,70.6c-.15.25-1.1,2.47-2.18,3l-45.8,30.52a1.72,1.72,0,0,1-2.6-1.63L89,73.7c0-1.28-.1-2.2-1.22-1.79h0c-.54.2-2,.67-2.21,1.26,0,0-29,140.22-31.13,142.51"/></clipPath></defs><title>watchlistrr-logo</title><g id="Layer_2" data-name="Layer 2"><g id="Layer_1-2" data-name="Layer 1"><g class="cls-2"><path class="cls-3" d="M7.13,113.27V28.64C7.13,7.08,28-6.4,44.66,4.38L110.13,46.7,175.59,89c16.68,10.78,16.68,37.74,0,48.52l-65.46,42.31L44.66,222.15C28,232.94,7.13,219.46,7.13,197.89Z" transform="translate(-6.75 -0.21)"/></g><g id="Layer_3" data-name="Layer 3"><path class="cls-4" d="M171,138.72c0-41.54,29.67-74.4,61.09-74.4A29.42,29.42,0,0,1,258.2,79.65h.64l3.7-9.91A3.89,3.89,0,0,1,266,67h12.6c2.51,0,4.35,2.93,3.72,5.94l-20.81,99.27a4.09,4.09,0,0,1-3.72,3.55H244.7c-2.26,0-4-2.39-3.83-5.17l.73-10H241c-10.75,10.71-24.56,17.8-37.54,17.8C183.39,178.4,171,164.32,171,138.72Zm72.73.68,8.56-40.1a5.66,5.66,0,0,0-.7-4.17c-5.05-7.89-11.57-11.23-18-11.23-19.19,0-36.9,23.65-36.9,51.63,0,15.94,6.58,23.3,17,23.3,9.52,0,20.19-4.92,29.24-17.48A5.18,5.18,0,0,0,243.69,139.4Z" transform="translate(-6.75 -0.21)"/><path class="cls-4" d="M300.08,151.83a73.41,73.41,0,0,1,1.46-12.72c0-.08,0-.16,0-.25l10.26-47.12c.66-3-1.18-6-3.71-6h-6c-2.52,0-4.35-2.94-3.72-5.94l1.75-8.33a4.16,4.16,0,0,1,3.51-3.55l11.95-.79a4,4,0,0,0,3.38-3L326.3,40.8a4,4,0,0,1,3.58-3h13.3c2.5,0,4.33,2.91,3.72,5.9l-3.53,17.43c-.61,3,1.22,5.9,3.72,5.9h17.38c2.51,0,4.35,2.92,3.72,5.93l-1.92,9.28c-.44,2.1-2,3.57-3.72,3.57H340.68A4.08,4.08,0,0,0,337,89.29L326.13,140a43.34,43.34,0,0,0-.65,7.62c0,8.06,3.71,12,13.17,12a20.14,20.14,0,0,0,7.1-1.42c2-.74,4.05.56,4.74,3l2.2,7.67c.74,2.6-.45,5.44-2.61,6.17a62.92,62.92,0,0,1-20.24,3.41C308.43,178.4,300.08,167,300.08,151.83Z" transform="translate(-6.75 -0.21)"/><path class="cls-4" d="M370,134.12c0-39,29.85-69.8,65.26-69.8a38.9,38.9,0,0,1,26.18,9.54,5.46,5.46,0,0,1,.2,7.54l-8,8.12a3.25,3.25,0,0,1-4.67.19c-4.42-4.07-8.76-6.08-15.26-6.08-20.39,0-38.28,22.68-38.28,49.69,0,16.38,7.6,25.77,23,25.77,7.53,0,13.63-2.91,18.89-6.47a3.34,3.34,0,0,1,4.69,1.06l5.41,7.6c1.66,2.33,1.09,6-1.15,7.37a59.7,59.7,0,0,1-33,9.75C388.15,178.4,370,162.28,370,134.12Z" transform="translate(-6.75 -0.21)"/><path class="cls-4" d="M504,20.57h16.87c2.52,0,4.36,2.95,3.71,6l-8.6,40c0,.11,0,.23-.08.34l-4.4,15.6h.92c11.5-9.57,23.74-16.92,37.46-16.92,19,0,27,10.1,27,27.54A60.35,60.35,0,0,1,575,108.34l-13.63,65.08a4.1,4.1,0,0,1-3.72,3.56h-16.9c-2.51,0-4.35-2.94-3.72-5.94l12.57-59.69c1.11-5,1.85-8.15,1.85-11.51,0-9.22-4.63-13.91-14.18-13.91-7.74,0-16.35,4.92-27.87,15.82a5,5,0,0,0-1.38,2.6L493.8,173.4c-.44,2.11-2,3.58-3.73,3.58H473.18c-2.51,0-4.35-2.93-3.72-5.94L500.29,24.12A4.07,4.07,0,0,1,504,20.57Z" transform="translate(-6.75 -0.21)"/><path d="M593.43,154a65.49,65.49,0,0,1,1.85-15L619.1,25.19a4.1,4.1,0,0,1,3.72-3.56H652c2.52,0,4.36,2.94,3.72,5.95L631.9,140.31a16.73,16.73,0,0,0-.47,4.21c0,4.21,2.32,5.54,4.64,5.54h0c2.22,0,4,2.32,3.84,5.06L639,172.21a4.54,4.54,0,0,1-3,4.34,67.2,67.2,0,0,1-16.14,1.85C600.84,178.4,593.43,169.1,593.43,154Z" transform="translate(-6.75 -0.21)"/><path d="M684.83,65H714c2.51,0,4.34,2.93,3.72,5.94L696.51,172.18a4.09,4.09,0,0,1-3.72,3.56H663.64c-2.51,0-4.34-2.93-3.72-5.93L681.11,68.59A4.1,4.1,0,0,1,684.83,65ZM687,34.48c0-10.63,9.73-19.93,22.24-19.93,9.74,0,19.47,5.76,19.47,16.38,0,11.52-9.73,19.93-22.25,19.93C696.69,50.86,687,45.55,687,34.48Z" transform="translate(-6.75 -0.21)"/><path d="M723.47,153.55l14.92-11.78a3.28,3.28,0,0,1,4.52.35c7.56,7.63,14.7,10.59,21.06,10.59,6.95,0,13-3.1,13-7.52,0-5.76-7.42-8-19.47-14.62-11.36-6.2-22.25-16.38-22.25-31,0-21.25,20.86-37.19,46.81-37.19,14.39,0,26,5.92,35.19,13.79a5.45,5.45,0,0,1,.06,7.71l-13.5,12.29a3.28,3.28,0,0,1-4.51,0c-5-4.36-10.79-7.71-17.24-7.71-7.41,0-12,3.55-12,8,0,6.2,9.74,8.86,18.54,13.73,11.13,5.76,23.18,14.62,23.18,31,0,22.14-20.86,37.2-50.06,37.2-12,0-28.17-5.68-38.73-17.37A5.43,5.43,0,0,1,723.47,153.55Z" transform="translate(-6.75 -0.21)"/><path d="M838.81,147.4a79.37,79.37,0,0,1,1.85-14.61l7.5-34.32c.66-3-1.18-6-3.71-6h-4.83c-2.52,0-4.35-2.95-3.71-6l3.59-16.86A4.15,4.15,0,0,1,843,66.14l11.6-.92a4,4,0,0,0,3.26-2.81l8.24-22.9a3.91,3.91,0,0,1,3.51-2.82h23.67c2.49,0,4.32,2.88,3.74,5.87l-3.26,16.61c-.59,3,1.24,5.86,3.73,5.86h15.22c2.5,0,4.34,2.91,3.73,5.9l-3.64,18c-.43,2.12-2,3.6-3.73,3.6h-20A4.09,4.09,0,0,0,885.34,96l-8.06,38.08a39,39,0,0,0-.46,7.08c0,6.64,3.71,9.74,11.12,9.74a16.11,16.11,0,0,0,4.94-.84c2-.62,4,.77,4.59,3.14l4,15.49c.69,2.65-.6,5.44-2.79,6.09a88.15,88.15,0,0,1-25.16,3.58C849,178.4,838.81,165.56,838.81,147.4Z" transform="translate(-6.75 -0.21)"/><path d="M946.45,65h23.09c2.2,0,4,2.28,3.84,5l-.72,16.7h.93c8.81-14.17,22.25-24.35,35.23-24.35a43.19,43.19,0,0,1,7.58.56c2.58.47,4.05,3.88,2.91,6.78l-8.61,21.82a3.69,3.69,0,0,1-4.21,2.57,40,40,0,0,0-9.26-.74c-9.56,0-17.77,5.55-26.4,19.58a5.49,5.49,0,0,0-.68,1.74l-11.59,57.45c-.43,2.12-2,3.6-3.73,3.6H925.69c-2.51,0-4.34-2.91-3.73-5.91L942.73,68.61A4.09,4.09,0,0,1,946.45,65Z" transform="translate(-6.75 -0.21)"/><path d="M1042.15,65h23.09c2.2,0,4,2.28,3.84,5l-.72,16.7h.93c8.81-14.17,22.25-24.35,35.23-24.35a43.19,43.19,0,0,1,7.58.56c2.58.47,4.05,3.88,2.91,6.78l-8.61,21.82a3.69,3.69,0,0,1-4.21,2.57,40,40,0,0,0-9.26-.74c-9.56,0-17.77,5.55-26.4,19.58a5.49,5.49,0,0,0-.68,1.74l-11.59,57.45c-.43,2.12-2,3.6-3.73,3.6h-29.14c-2.51,0-4.34-2.91-3.73-5.91l20.77-101.22A4.09,4.09,0,0,1,1042.15,65Z" transform="translate(-6.75 -0.21)"/></g></g></g></svg>